{
	"asset":{
		"generator":"Khronos glTF Blender I/O v4.3.47",
		"version":"2.0"
	},
	"scene":0,
	"scenes":[
		{
			"name":"Scene",
			"nodes":[
				0,
				1,
				2,
				3,
				4
			]
		}
	],
	"nodes":[
		{
			"mesh":0,
			"name":"Cube.001",
			"scale":[
				0.3360344469547272,
				0.26691165566444397,
				1.28672456741333
			],
			"translation":[
				0,
				3.166696071624756,
				0.4714409410953522
			]
		},
		{
			"mesh":1,
			"name":"Cube.002",
			"scale":[
				0.3359953463077545,
				0.29093387722969055,
				0.8751536011695862
			],
			"translation":[
				0,
				0.3559422492980957,
				0.19461077451705933
			]
		},
		{
			"mesh":2,
			"name":"Cube",
			"rotation":[
				0,
				0,
				-1,
				0
			],
			"scale":[
				-0.33387356996536255,
				-0.9432407021522522,
				-0.2999446988105774
			],
			"translation":[
				0,
				1.6873254776000977,
				0.12689471244812012
			]
		},
		{
			"mesh":3,
			"name":"Cube.003",
			"scale":[
				0.33621275424957275,
				1.3826630115509033,
				1.0173794031143188
			],
			"translation":[
				0,
				1.448470115661621,
				-0.5965029001235962
			]
		},
		{
			"mesh":4,
			"name":"Cube.004",
			"rotation":[
				1,
				0,
				0,
				0
			],
			"scale":[
				-0.3341856300830841,
				-1.3826630115509033,
				-1.0173794031143188
			],
			"translation":[
				0,
				1.448470115661621,
				-0.5833768844604492
			]
		}
	],
	"materials":[
		{
			"doubleSided":true,
			"name":"Material.001",
			"pbrMetallicRoughness":{
				"baseColorTexture":{
					"index":0
				},
				"metallicFactor":0,
				"roughnessFactor":0.5
			}
		},
		{
			"doubleSided":true,
			"name":"Material.009",
			"pbrMetallicRoughness":{
				"baseColorTexture":{
					"index":1
				},
				"metallicFactor":0,
				"roughnessFactor":0.5
			}
		},
		{
			"doubleSided":true,
			"name":"Material.008",
			"pbrMetallicRoughness":{
				"baseColorTexture":{
					"index":2
				},
				"metallicFactor":0,
				"roughnessFactor":0.5
			}
		},
		{
			"doubleSided":true,
			"name":"Material.010",
			"pbrMetallicRoughness":{
				"baseColorTexture":{
					"index":3
				},
				"metallicFactor":0,
				"roughnessFactor":0.5
			}
		},
		{
			"doubleSided":true,
			"name":"Material.011",
			"pbrMetallicRoughness":{
				"baseColorTexture":{
					"index":4
				},
				"metallicFactor":0,
				"roughnessFactor":0.5
			}
		}
	],
	"meshes":[
		{
			"name":"Cube.002",
			"primitives":[
				{
					"attributes":{
						"POSITION":0,
						"NORMAL":1,
						"TEXCOORD_0":2
					},
					"indices":3,
					"material":0
				}
			]
		},
		{
			"name":"Cube.004",
			"primitives":[
				{
					"attributes":{
						"POSITION":4,
						"NORMAL":5,
						"TEXCOORD_0":6
					},
					"indices":7,
					"material":1
				}
			]
		},
		{
			"name":"Cube",
			"primitives":[
				{
					"attributes":{
						"POSITION":8,
						"NORMAL":9,
						"TEXCOORD_0":10
					},
					"indices":11,
					"material":2
				}
			]
		},
		{
			"name":"Cube.003",
			"primitives":[
				{
					"attributes":{
						"POSITION":12,
						"NORMAL":13,
						"TEXCOORD_0":14
					},
					"indices":15,
					"material":3
				}
			]
		},
		{
			"name":"Cube.005",
			"primitives":[
				{
					"attributes":{
						"POSITION":16,
						"NORMAL":17,
						"TEXCOORD_0":18
					},
					"indices":19,
					"material":4
				}
			]
		}
	],
	"textures":[
		{
			"sampler":0,
			"source":0
		},
		{
			"sampler":0,
			"source":1
		},
		{
			"sampler":0,
			"source":2
		},
		{
			"sampler":0,
			"source":3
		},
		{
			"sampler":0,
			"source":4
		}
	],
	"images":[
		{
			"mimeType":"image/png",
			"name":"cxc",
			"uri":"cxc.png"
		},
		{
			"mimeType":"image/png",
			"name":"sdfsdg",
			"uri":"sdfsdg.png"
		},
		{
			"mimeType":"image/png",
			"name":"sdsdff",
			"uri":"sdsdff.png"
		},
		{
			"mimeType":"image/png",
			"name":"jgfghdfxg",
			"uri":"jgfghdfxg.png"
		},
		{
			"mimeType":"image/png",
			"name":"htdgsdg",
			"uri":"htdgsdg.png"
		}
	],
	"accessors":[
		{
			"bufferView":0,
			"componentType":5126,
			"count":30,
			"max":[
				1,
				1,
				1
			],
			"min":[
				-1,
				-1,
				-0.5757042169570923
			],
			"type":"VEC3"
		},
		{
			"bufferView":1,
			"componentType":5126,
			"count":30,
			"type":"VEC3"
		},
		{
			"bufferView":2,
			"componentType":5126,
			"count":30,
			"type":"VEC2"
		},
		{
			"bufferView":3,
			"componentType":5123,
			"count":48,
			"type":"SCALAR"
		},
		{
			"bufferView":4,
			"componentType":5126,
			"count":48,
			"max":[
				1.0006614923477173,
				10.262417793273926,
				1.80303955078125
			],
			"min":[
				-1.0006614923477173,
				-1.0022578239440918,
				-1.1366932392120361
			],
			"type":"VEC3"
		},
		{
			"bufferView":5,
			"componentType":5126,
			"count":48,
			"type":"VEC3"
		},
		{
			"bufferView":6,
			"componentType":5126,
			"count":48,
			"type":"VEC2"
		},
		{
			"bufferView":7,
			"componentType":5123,
			"count":72,
			"type":"SCALAR"
		},
		{
			"bufferView":8,
			"componentType":5126,
			"count":24,
			"max":[
				1,
				1.0386563539505005,
				1
			],
			"min":[
				-1,
				-1,
				-1
			],
			"type":"VEC3"
		},
		{
			"bufferView":9,
			"componentType":5126,
			"count":24,
			"type":"VEC3"
		},
		{
			"bufferView":10,
			"componentType":5126,
			"count":24,
			"type":"VEC2"
		},
		{
			"bufferView":11,
			"componentType":5123,
			"count":36,
			"type":"SCALAR"
		},
		{
			"bufferView":12,
			"componentType":5126,
			"count":24,
			"max":[
				1,
				0.9917653799057007,
				0.9990441799163818
			],
			"min":[
				-1,
				-0.9974910616874695,
				-0.9854547381401062
			],
			"type":"VEC3"
		},
		{
			"bufferView":13,
			"componentType":5126,
			"count":24,
			"type":"VEC3"
		},
		{
			"bufferView":14,
			"componentType":5126,
			"count":24,
			"type":"VEC2"
		},
		{
			"bufferView":15,
			"componentType":5123,
			"count":36,
			"type":"SCALAR"
		},
		{
			"bufferView":16,
			"componentType":5126,
			"count":24,
			"max":[
				1,
				0.9942773580551147,
				-0.42926669120788574
			],
			"min":[
				-1,
				-0.878478467464447,
				-0.9974075555801392
			],
			"type":"VEC3"
		},
		{
			"bufferView":17,
			"componentType":5126,
			"count":24,
			"type":"VEC3"
		},
		{
			"bufferView":18,
			"componentType":5126,
			"count":24,
			"type":"VEC2"
		},
		{
			"bufferView":19,
			"componentType":5123,
			"count":36,
			"type":"SCALAR"
		}
	],
	"bufferViews":[
		{
			"buffer":0,
			"byteLength":360,
			"byteOffset":0,
			"target":34962
		},
		{
			"buffer":0,
			"byteLength":360,
			"byteOffset":360,
			"target":34962
		},
		{
			"buffer":0,
			"byteLength":240,
			"byteOffset":720,
			"target":34962
		},
		{
			"buffer":0,
			"byteLength":96,
			"byteOffset":960,
			"target":34963
		},
		{
			"buffer":0,
			"byteLength":576,
			"byteOffset":1056,
			"target":34962
		},
		{
			"buffer":0,
			"byteLength":576,
			"byteOffset":1632,
			"target":34962
		},
		{
			"buffer":0,
			"byteLength":384,
			"byteOffset":2208,
			"target":34962
		},
		{
			"buffer":0,
			"byteLength":144,
			"byteOffset":2592,
			"target":34963
		},
		{
			"buffer":0,
			"byteLength":288,
			"byteOffset":2736,
			"target":34962
		},
		{
			"buffer":0,
			"byteLength":288,
			"byteOffset":3024,
			"target":34962
		},
		{
			"buffer":0,
			"byteLength":192,
			"byteOffset":3312,
			"target":34962
		},
		{
			"buffer":0,
			"byteLength":72,
			"byteOffset":3504,
			"target":34963
		},
		{
			"buffer":0,
			"byteLength":288,
			"byteOffset":3576,
			"target":34962
		},
		{
			"buffer":0,
			"byteLength":288,
			"byteOffset":3864,
			"target":34962
		},
		{
			"buffer":0,
			"byteLength":192,
			"byteOffset":4152,
			"target":34962
		},
		{
			"buffer":0,
			"byteLength":72,
			"byteOffset":4344,
			"target":34963
		},
		{
			"buffer":0,
			"byteLength":288,
			"byteOffset":4416,
			"target":34962
		},
		{
			"buffer":0,
			"byteLength":288,
			"byteOffset":4704,
			"target":34962
		},
		{
			"buffer":0,
			"byteLength":192,
			"byteOffset":4992,
			"target":34962
		},
		{
			"buffer":0,
			"byteLength":72,
			"byteOffset":5184,
			"target":34963
		}
	],
	"samplers":[
		{
			"magFilter":9729,
			"minFilter":9987
		}
	],
	"buffers":[
		{
			"byteLength":5256,
			"uri":"LNC.bin"
		}
	]
}
